<svg width="127" height="127" viewBox="0 0 127 127" fill="none" xmlns="http://www.w3.org/2000/svg">
<rect width="127" height="127" rx="24" fill="url(#paint0_linear_18_14)"/>
<path fill-rule="evenodd" clip-rule="evenodd" d="M76.8614 26.9875H43.7885C41.9619 26.9875 40.4812 28.4736 40.4812 30.3068V96.6932C40.4812 98.5264 41.9619 100.013 43.7885 100.013H76.8614C78.688 100.013 80.1687 98.5264 80.1687 96.6932V81.7563H79.0657C74.4993 81.7563 70.7975 78.0409 70.7975 73.458V69.5853H66.9395C62.3732 69.5853 58.6713 65.87 58.6713 61.287V55.7548C58.6713 51.1718 62.3732 47.4565 66.9395 47.4565H70.7975V43.5841C70.7975 39.0011 74.4993 35.2858 79.0657 35.2858H80.1687V30.3068C80.1687 28.4736 78.688 26.9875 76.8614 26.9875ZM60.325 87.5651C61.6948 87.5651 62.8054 88.6797 62.8054 90.0546V90.1601C62.8054 91.535 61.6948 92.6496 60.325 92.6496C58.955 92.6496 57.8445 91.535 57.8445 90.1601V90.0546C57.8445 88.6797 58.955 87.5651 60.325 87.5651ZM49.5763 36.9455C49.5763 35.5706 50.6868 34.456 52.0567 34.456H68.5932C69.9631 34.456 71.0736 35.5706 71.0736 36.9455C71.0736 38.3204 69.9631 39.4349 68.5932 39.4349H52.0567C50.6868 39.4349 49.5763 38.3204 49.5763 36.9455Z" fill="white"/>
<path d="M85.3156 39.6875C87.1485 39.6875 88.6349 41.1736 88.6349 43.0068V51.5262C88.6349 51.7096 88.7833 51.8582 88.9669 51.8582H97.4869C99.3201 51.8582 100.806 53.3443 100.806 55.1775V60.7097C100.806 62.543 99.3201 64.0291 97.4869 64.0291H88.9669C88.7833 64.0291 88.6349 64.1778 88.6349 64.361V72.8807C88.6349 74.7139 87.1485 76.2 85.3156 76.2H79.7833C77.95 76.2 76.464 74.7139 76.464 72.8807V64.361C76.464 64.1778 76.3153 64.0291 76.132 64.0291H67.613C65.7798 64.0291 64.2937 62.543 64.2937 60.7097V55.1775C64.2937 53.3443 65.7798 51.8582 67.613 51.8582H76.132C76.3153 51.8582 76.464 51.7096 76.464 51.5262V43.0068C76.464 41.1736 77.95 39.6875 79.7833 39.6875H85.3156Z" fill="white"/>
<defs>
<linearGradient id="paint0_linear_18_14" x1="3.7849e-06" y1="127" x2="127" y2="-3.7849e-06" gradientUnits="userSpaceOnUse">
<stop stop-color="#008CFF"/>
<stop offset="1" stop-color="#0071FF"/>
</linearGradient>
</defs>
</svg>
