<svg width="599" height="124" viewBox="0 0 599 124" fill="none" xmlns="http://www.w3.org/2000/svg">
<g clip-path="url(#clip0_1_7)">
<path d="M103 -2H24C10.7452 -2 0 8.74517 0 22V101C0 114.255 10.7452 125 24 125H103C116.255 125 127 114.255 127 101V22C127 8.74517 116.255 -2 103 -2Z" fill="white"/>
<path fill-rule="evenodd" clip-rule="evenodd" d="M76.8614 24.9875H43.7885C41.9619 24.9875 40.4812 26.4736 40.4812 28.3068V94.693C40.4812 96.526 41.9619 98.012 43.7885 98.012H76.8614C78.688 98.012 80.1687 96.526 80.1687 94.693V79.756H79.0657C74.4993 79.756 70.7975 76.041 70.7975 71.458V67.585H66.9395C62.3732 67.585 58.6713 63.87 58.6713 59.287V53.7548C58.6713 49.1718 62.3732 45.4565 66.9395 45.4565H70.7975V41.5841C70.7975 37.0011 74.4993 33.2858 79.0657 33.2858H80.1687V28.3068C80.1687 26.4736 78.688 24.9875 76.8614 24.9875ZM60.325 85.565C61.6948 85.565 62.8054 86.68 62.8054 88.055V88.16C62.8054 89.535 61.6948 90.65 60.325 90.65C58.955 90.65 57.8445 89.535 57.8445 88.16V88.055C57.8445 86.68 58.955 85.565 60.325 85.565ZM49.5763 34.9455C49.5763 33.5706 50.6868 32.456 52.0567 32.456H68.5932C69.9631 32.456 71.0736 33.5706 71.0736 34.9455C71.0736 36.3204 69.9631 37.4349 68.5932 37.4349H52.0567C50.6868 37.4349 49.5763 36.3204 49.5763 34.9455Z" fill="#0071FF"/>
<path d="M85.3156 37.6875C87.1485 37.6875 88.6349 39.1736 88.6349 41.0068V49.5262C88.6349 49.7096 88.7833 49.8582 88.9669 49.8582H97.4869C99.3201 49.8582 100.806 51.3443 100.806 53.1775V58.7097C100.806 60.543 99.3201 62.0291 97.4869 62.0291H88.9669C88.7833 62.0291 88.6349 62.1778 88.6349 62.361V70.881C88.6349 72.714 87.1485 74.2 85.3156 74.2H79.7833C77.95 74.2 76.464 72.714 76.464 70.881V62.361C76.464 62.1778 76.3153 62.0291 76.132 62.0291H67.613C65.7798 62.0291 64.2937 60.543 64.2937 58.7097V53.1775C64.2937 51.3443 65.7798 49.8582 67.613 49.8582H76.132C76.3153 49.8582 76.464 49.7096 76.464 49.5262V41.0068C76.464 39.1736 77.95 37.6875 79.7833 37.6875H85.3156Z" fill="#0071FF"/>
<path d="M156.36 113V39.592H174.712V47.584H177.376C178.659 45.1173 180.78 42.996 183.74 41.22C186.7 39.3453 190.597 38.408 195.432 38.408C200.661 38.408 204.855 39.444 208.012 41.516C211.169 43.4893 213.587 46.104 215.264 49.36H217.928C219.605 46.2027 221.973 43.588 225.032 41.516C228.091 39.444 232.432 38.408 238.056 38.408C242.595 38.408 246.689 39.3947 250.34 41.368C254.089 43.2427 257.049 46.1533 259.22 50.1C261.489 53.948 262.624 58.832 262.624 64.752V113H243.976V66.084C243.976 62.0387 242.94 59.0293 240.868 57.056C238.796 54.984 235.885 53.948 232.136 53.948C227.893 53.948 224.588 55.3293 222.22 58.092C219.951 60.756 218.816 64.604 218.816 69.636V113H200.168V66.084C200.168 62.0387 199.132 59.0293 197.06 57.056C194.988 54.984 192.077 53.948 188.328 53.948C184.085 53.948 180.78 55.3293 178.412 58.092C176.143 60.756 175.008 64.604 175.008 69.636V113H156.36ZM296.592 115.072C291.363 115.072 286.676 114.184 282.532 112.408C278.388 110.533 275.083 107.869 272.616 104.416C270.248 100.864 269.064 96.572 269.064 91.54C269.064 86.508 270.248 82.315 272.616 78.96C275.083 75.507 278.438 72.941 282.68 71.264C287.022 69.488 291.955 68.6 297.48 68.6H317.608V64.456C317.608 61.0027 316.523 58.1907 314.352 56.02C312.182 53.7507 308.728 52.616 303.992 52.616C299.355 52.616 295.902 53.7013 293.632 55.872C291.363 57.944 289.883 60.6573 289.192 64.012L272.024 58.24C273.208 54.4907 275.083 51.0867 277.648 48.028C280.312 44.8707 283.815 42.3547 288.156 40.48C292.596 38.5067 297.974 37.52 304.288 37.52C313.958 37.52 321.604 39.9373 327.228 44.772C332.852 49.6067 335.664 56.612 335.664 65.788V93.168C335.664 96.128 337.046 97.608 339.808 97.608H345.728V113H333.296C329.646 113 326.636 112.112 324.268 110.336C321.9 108.56 320.716 106.192 320.716 103.232V103.084H317.904C317.51 104.268 316.622 105.847 315.24 107.82C313.859 109.695 311.688 111.372 308.728 112.852C305.768 114.332 301.723 115.072 296.592 115.072ZM299.848 99.976C305.078 99.976 309.32 98.545 312.576 95.684C315.931 92.724 317.608 88.827 317.608 83.992V82.512H298.812C295.359 82.512 292.646 83.252 290.672 84.732C288.699 86.212 287.712 88.284 287.712 90.948C287.712 93.612 288.748 95.783 290.82 97.46C292.892 99.137 295.902 99.976 299.848 99.976ZM380.393 115.072C370.822 115.072 362.978 113 356.861 108.856C350.743 104.712 347.043 98.792 345.761 91.096L362.929 86.656C363.619 90.109 364.754 92.823 366.333 94.796C368.01 96.769 370.033 98.2 372.401 99.088C374.867 99.877 377.531 100.272 380.393 100.272C384.734 100.272 387.941 99.532 390.013 98.052C392.085 96.473 393.121 94.549 393.121 92.28C393.121 90.011 392.134 88.284 390.161 87.1C388.187 85.817 385.03 84.781 380.689 83.992L376.545 83.252C371.414 82.265 366.727 80.933 362.485 79.256C358.242 77.48 354.838 75.063 352.273 72.004C349.707 68.945 348.425 64.9987 348.425 60.164C348.425 52.8627 351.089 47.288 356.417 43.44C361.745 39.4933 368.75 37.52 377.433 37.52C385.622 37.52 392.43 39.3453 397.857 42.996C403.283 46.6467 406.835 51.432 408.513 57.352L391.197 62.68C390.407 58.9307 388.779 56.2667 386.313 54.688C383.945 53.1093 380.985 52.32 377.433 52.32C373.881 52.32 371.167 52.9613 369.293 54.244C367.418 55.428 366.481 57.1053 366.481 59.276C366.481 61.644 367.467 63.42 369.441 64.604C371.414 65.6893 374.078 66.528 377.433 67.12L381.577 67.86C387.102 68.847 392.085 70.179 396.525 71.856C401.063 73.435 404.615 75.753 407.181 78.812C409.845 81.772 411.177 85.817 411.177 90.948C411.177 98.644 408.365 104.613 402.741 108.856C397.215 113 389.766 115.072 380.393 115.072ZM445.313 113C440.478 113 436.531 111.52 433.473 108.56C430.513 105.501 429.033 101.456 429.033 96.424V54.984H410.681V39.592H429.033V16.8H447.681V39.592H467.809V54.984H447.681V93.168C447.681 96.128 449.062 97.608 451.825 97.608H466.033V113H445.313ZM506.655 115.072C499.354 115.072 492.891 113.543 487.267 110.484C481.742 107.327 477.401 102.936 474.243 97.312C471.185 91.589 469.655 84.88 469.655 77.184V75.408C469.655 67.712 471.185 61.052 474.243 55.428C477.302 49.7053 481.594 45.3147 487.119 42.256C492.645 39.0987 499.058 37.52 506.359 37.52C513.562 37.52 519.827 39.148 525.155 42.404C530.483 45.5613 534.627 50.0013 537.587 55.724C540.547 61.348 542.027 67.909 542.027 75.408V81.772H488.599C488.797 86.804 490.671 90.899 494.223 94.056C497.775 97.213 502.117 98.792 507.247 98.792C512.477 98.792 516.325 97.657 518.791 95.388C521.258 93.119 523.133 90.603 524.415 87.84L539.659 95.832C538.278 98.397 536.255 101.209 533.591 104.268C531.026 107.228 527.573 109.793 523.231 111.964C518.89 114.036 513.365 115.072 506.655 115.072ZM488.747 67.86H523.083C522.689 63.6173 520.962 60.2133 517.903 57.648C514.943 55.0827 511.046 53.8 506.211 53.8C501.179 53.8 497.183 55.0827 494.223 57.648C491.263 60.2133 489.438 63.6173 488.747 67.86ZM549.745 113V39.592H568.097V47.88H570.761C571.846 44.92 573.622 42.7493 576.089 41.368C578.654 39.9867 581.614 39.296 584.969 39.296H593.849V55.872H584.673C579.937 55.872 576.04 57.1547 572.981 59.72C569.922 62.1867 568.393 66.0347 568.393 71.264V113H549.745Z" fill="white"/>
</g>
<defs>
<clipPath id="clip0_1_7">
<rect width="599" height="124" fill="white"/>
</clipPath>
</defs>
</svg>
