<svg width="599" height="189" viewBox="0 0 599 189" fill="none" xmlns="http://www.w3.org/2000/svg">
<rect y="31" width="127" height="127" rx="24" fill="url(#paint0_linear_18_8)"/>
<path fill-rule="evenodd" clip-rule="evenodd" d="M76.8614 57.9875H43.7885C41.9619 57.9875 40.4812 59.4736 40.4812 61.3068V127.693C40.4812 129.526 41.9619 131.012 43.7885 131.012H76.8614C78.688 131.012 80.1687 129.526 80.1687 127.693V112.756H79.0657C74.4993 112.756 70.7975 109.041 70.7975 104.458V100.585H66.9395C62.3732 100.585 58.6713 96.87 58.6713 92.287V86.7548C58.6713 82.1717 62.3732 78.4565 66.9395 78.4565H70.7975V74.5841C70.7975 70.0011 74.4993 66.2858 79.0657 66.2858H80.1687V61.3068C80.1687 59.4736 78.688 57.9875 76.8614 57.9875ZM60.325 118.565C61.6948 118.565 62.8054 119.68 62.8054 121.055V121.16C62.8054 122.535 61.6948 123.65 60.325 123.65C58.955 123.65 57.8445 122.535 57.8445 121.16V121.055C57.8445 119.68 58.955 118.565 60.325 118.565ZM49.5763 67.9454C49.5763 66.5705 50.6868 65.456 52.0567 65.456H68.5932C69.9631 65.456 71.0736 66.5705 71.0736 67.9454C71.0736 69.3203 69.9631 70.4349 68.5932 70.4349H52.0567C50.6868 70.4349 49.5763 69.3203 49.5763 67.9454Z" fill="white"/>
<path d="M85.3156 70.6875C87.1485 70.6875 88.6349 72.1736 88.6349 74.0068V82.5262C88.6349 82.7096 88.7833 82.8582 88.9669 82.8582H97.4869C99.3201 82.8582 100.806 84.3443 100.806 86.1775V91.7097C100.806 93.543 99.3201 95.0291 97.4869 95.0291H88.9669C88.7833 95.0291 88.6349 95.1778 88.6349 95.361V103.881C88.6349 105.714 87.1485 107.2 85.3156 107.2H79.7833C77.95 107.2 76.464 105.714 76.464 103.881V95.361C76.464 95.1778 76.3153 95.0291 76.132 95.0291H67.613C65.7798 95.0291 64.2937 93.543 64.2937 91.7097V86.1775C64.2937 84.3443 65.7798 82.8582 67.613 82.8582H76.132C76.3153 82.8582 76.464 82.7096 76.464 82.5262V74.0068C76.464 72.1736 77.95 70.6875 79.7833 70.6875H85.3156Z" fill="white"/>
<path d="M156.36 146V72.592H174.712V80.584H177.376C178.659 78.1173 180.78 75.996 183.74 74.22C186.7 72.3453 190.597 71.408 195.432 71.408C200.661 71.408 204.855 72.444 208.012 74.516C211.169 76.4893 213.587 79.104 215.264 82.36H217.928C219.605 79.2027 221.973 76.588 225.032 74.516C228.091 72.444 232.432 71.408 238.056 71.408C242.595 71.408 246.689 72.3947 250.34 74.368C254.089 76.2427 257.049 79.1533 259.22 83.1C261.489 86.948 262.624 91.832 262.624 97.752V146H243.976V99.084C243.976 95.0387 242.94 92.0293 240.868 90.056C238.796 87.984 235.885 86.948 232.136 86.948C227.893 86.948 224.588 88.3293 222.22 91.092C219.951 93.756 218.816 97.604 218.816 102.636V146H200.168V99.084C200.168 95.0387 199.132 92.0293 197.06 90.056C194.988 87.984 192.077 86.948 188.328 86.948C184.085 86.948 180.78 88.3293 178.412 91.092C176.143 93.756 175.008 97.604 175.008 102.636V146H156.36ZM296.592 148.072C291.363 148.072 286.676 147.184 282.532 145.408C278.388 143.533 275.083 140.869 272.616 137.416C270.248 133.864 269.064 129.572 269.064 124.54C269.064 119.508 270.248 115.315 272.616 111.96C275.083 108.507 278.438 105.941 282.68 104.264C287.022 102.488 291.955 101.6 297.48 101.6H317.608V97.456C317.608 94.0027 316.523 91.1907 314.352 89.02C312.182 86.7507 308.728 85.616 303.992 85.616C299.355 85.616 295.902 86.7013 293.632 88.872C291.363 90.944 289.883 93.6573 289.192 97.012L272.024 91.24C273.208 87.4907 275.083 84.0867 277.648 81.028C280.312 77.8707 283.815 75.3547 288.156 73.48C292.596 71.5067 297.974 70.52 304.288 70.52C313.958 70.52 321.604 72.9373 327.228 77.772C332.852 82.6067 335.664 89.612 335.664 98.788V126.168C335.664 129.128 337.046 130.608 339.808 130.608H345.728V146H333.296C329.646 146 326.636 145.112 324.268 143.336C321.9 141.56 320.716 139.192 320.716 136.232V136.084H317.904C317.51 137.268 316.622 138.847 315.24 140.82C313.859 142.695 311.688 144.372 308.728 145.852C305.768 147.332 301.723 148.072 296.592 148.072ZM299.848 132.976C305.078 132.976 309.32 131.545 312.576 128.684C315.931 125.724 317.608 121.827 317.608 116.992V115.512H298.812C295.359 115.512 292.646 116.252 290.672 117.732C288.699 119.212 287.712 121.284 287.712 123.948C287.712 126.612 288.748 128.783 290.82 130.46C292.892 132.137 295.902 132.976 299.848 132.976ZM380.393 148.072C370.822 148.072 362.978 146 356.861 141.856C350.743 137.712 347.043 131.792 345.761 124.096L362.929 119.656C363.619 123.109 364.754 125.823 366.333 127.796C368.01 129.769 370.033 131.2 372.401 132.088C374.867 132.877 377.531 133.272 380.393 133.272C384.734 133.272 387.941 132.532 390.013 131.052C392.085 129.473 393.121 127.549 393.121 125.28C393.121 123.011 392.134 121.284 390.161 120.1C388.187 118.817 385.03 117.781 380.689 116.992L376.545 116.252C371.414 115.265 366.727 113.933 362.485 112.256C358.242 110.48 354.838 108.063 352.273 105.004C349.707 101.945 348.425 97.9987 348.425 93.164C348.425 85.8627 351.089 80.288 356.417 76.44C361.745 72.4933 368.75 70.52 377.433 70.52C385.622 70.52 392.43 72.3453 397.857 75.996C403.283 79.6467 406.835 84.432 408.513 90.352L391.197 95.68C390.407 91.9307 388.779 89.2667 386.313 87.688C383.945 86.1093 380.985 85.32 377.433 85.32C373.881 85.32 371.167 85.9613 369.293 87.244C367.418 88.428 366.481 90.1053 366.481 92.276C366.481 94.644 367.467 96.42 369.441 97.604C371.414 98.6893 374.078 99.528 377.433 100.12L381.577 100.86C387.102 101.847 392.085 103.179 396.525 104.856C401.063 106.435 404.615 108.753 407.181 111.812C409.845 114.772 411.177 118.817 411.177 123.948C411.177 131.644 408.365 137.613 402.741 141.856C397.215 146 389.766 148.072 380.393 148.072ZM445.313 146C440.478 146 436.531 144.52 433.473 141.56C430.513 138.501 429.033 134.456 429.033 129.424V87.984H410.681V72.592H429.033V49.8H447.681V72.592H467.809V87.984H447.681V126.168C447.681 129.128 449.062 130.608 451.825 130.608H466.033V146H445.313ZM506.655 148.072C499.354 148.072 492.891 146.543 487.267 143.484C481.742 140.327 477.401 135.936 474.243 130.312C471.185 124.589 469.655 117.88 469.655 110.184V108.408C469.655 100.712 471.185 94.052 474.243 88.428C477.302 82.7053 481.594 78.3147 487.119 75.256C492.645 72.0987 499.058 70.52 506.359 70.52C513.562 70.52 519.827 72.148 525.155 75.404C530.483 78.5613 534.627 83.0013 537.587 88.724C540.547 94.348 542.027 100.909 542.027 108.408V114.772H488.599C488.797 119.804 490.671 123.899 494.223 127.056C497.775 130.213 502.117 131.792 507.247 131.792C512.477 131.792 516.325 130.657 518.791 128.388C521.258 126.119 523.133 123.603 524.415 120.84L539.659 128.832C538.278 131.397 536.255 134.209 533.591 137.268C531.026 140.228 527.573 142.793 523.231 144.964C518.89 147.036 513.365 148.072 506.655 148.072ZM488.747 100.86H523.083C522.689 96.6173 520.962 93.2133 517.903 90.648C514.943 88.0827 511.046 86.8 506.211 86.8C501.179 86.8 497.183 88.0827 494.223 90.648C491.263 93.2133 489.438 96.6173 488.747 100.86ZM549.745 146V72.592H568.097V80.88H570.761C571.846 77.92 573.622 75.7493 576.089 74.368C578.654 72.9867 581.614 72.296 584.969 72.296H593.849V88.872H584.673C579.937 88.872 576.04 90.1547 572.981 92.72C569.922 95.1867 568.393 99.0347 568.393 104.264V146H549.745Z" fill="#0071FF"/>
<defs>
<linearGradient id="paint0_linear_18_8" x1="3.7849e-06" y1="158" x2="127" y2="31" gradientUnits="userSpaceOnUse">
<stop stop-color="#008CFF"/>
<stop offset="1" stop-color="#0071FF"/>
</linearGradient>
</defs>
</svg>
